<svg width="118" height="40" viewBox="0 0 118 40" fill="none" xmlns="http://www.w3.org/2000/svg">
<g clip-path="url(#clip0_47_5331)">
<path fill-rule="evenodd" clip-rule="evenodd" d="M72.2336 13.1382C70.3702 13.1382 68.8951 13.5185 67.42 14.3552C67.42 10.172 67.42 6.29299 67.5753 5L58.4917 6.59722V7.3578L59.4233 7.50992C60.6655 7.7381 61.0537 8.42262 61.2866 10.0198C61.5195 13.2143 61.4419 30.0232 61.2866 32.8373C63.6934 33.3697 66.2554 33.75 68.8175 33.75C75.9602 33.75 80.2302 29.4147 80.2302 22.5694C80.3079 17.0933 76.8142 13.1382 72.2336 13.1382ZM69.128 32.2288C68.5846 32.2288 67.8858 32.2288 67.4977 32.0767C67.3424 30.2513 67.2647 22.4934 67.3424 15.6481C68.1188 15.42 68.6622 15.2679 69.361 15.2679C72.3112 15.2679 73.9416 18.6905 73.9416 22.8737C73.9416 28.1978 71.923 32.2288 69.128 32.2288Z" fill="#838383"/>
<path fill-rule="evenodd" clip-rule="evenodd" d="M24.6417 5.53228H0.962158V6.74921L2.282 6.90132C4.06767 7.1295 4.68877 8.19431 4.99932 10.7042C5.38751 15.4198 5.23223 24.0144 4.99932 28.1216C4.7664 30.6315 4.06767 31.7724 2.282 31.9245L0.962158 32.1526V33.2175H16.1791V32.1526L14.5488 31.9245C12.7631 31.7724 12.142 30.6315 11.8314 28.1216C11.6762 26.3722 11.5985 23.6341 11.5985 20.2115L14.8593 20.3636C16.8779 20.3636 17.8095 21.9608 18.1977 24.1665H19.4399V14.7353H18.1977C17.8095 16.941 16.8779 18.5382 14.8593 18.5382L11.5985 18.6903C11.5985 14.2029 11.7538 10.0197 11.8314 7.50979H16.5673C20.2163 7.50979 22.0796 9.71548 23.3995 13.6705L24.7193 13.2902L24.6417 5.53228Z" fill="#838383"/>
<path fill-rule="evenodd" clip-rule="evenodd" d="M32.2502 12.9101C39.0046 12.9101 42.3431 17.3975 42.3431 23.3301C42.3431 28.9584 38.6164 33.75 31.862 33.75C25.1075 33.75 21.7691 29.2626 21.7691 23.3301C21.7691 17.6257 25.5733 12.9101 32.2502 12.9101ZM31.862 14.2031C28.9117 14.2031 28.1354 18.1581 28.1354 23.254C28.1354 28.2739 29.4552 32.3049 32.1725 32.3049C35.278 32.3049 36.0544 28.3499 36.0544 23.254C36.0544 18.3102 34.7346 14.2031 31.862 14.2031Z" fill="#838383"/>
<path fill-rule="evenodd" clip-rule="evenodd" d="M82.0159 23.4062C82.0159 18.0061 85.5096 12.8341 92.3417 12.8341C98.0093 12.8341 100.649 16.9412 100.649 22.3414H88.1493C87.994 27.2091 90.4008 30.7838 95.292 30.7838C97.4658 30.7838 98.5527 30.2514 99.8726 29.3387L100.416 30.0233C99.0962 31.8487 96.146 33.6741 92.3417 33.6741C86.3636 33.7501 82.0159 29.4908 82.0159 23.4062ZM88.2269 20.9723L94.5156 20.8202C94.5156 18.1582 94.1274 14.2031 91.7983 14.2031C89.5468 14.2031 88.3822 17.93 88.2269 20.9723Z" fill="#838383"/>
<path fill-rule="evenodd" clip-rule="evenodd" d="M116.72 13.9749C115.09 13.2904 112.993 12.9101 110.509 12.9101C105.54 12.9101 102.435 15.8003 102.435 19.2229C102.435 22.6456 104.686 24.0907 107.947 25.1555C111.285 26.3724 112.217 27.2851 112.217 28.8063C112.217 30.4035 110.975 31.8486 108.879 31.8486C106.316 31.8486 104.453 30.4035 102.978 26.4485L102.046 26.6766L102.202 32.4571C103.832 33.1416 106.782 33.674 109.344 33.674C114.624 33.674 117.962 31.012 117.962 26.9809C117.962 24.2428 116.487 22.6456 112.993 21.3526C109.267 19.9075 107.869 18.9948 107.869 17.2454C107.869 15.4961 109.111 14.3552 110.664 14.3552C113.071 14.3552 114.701 15.8003 115.944 19.3751L116.875 19.1469L116.72 13.9749Z" fill="#838383"/>
<path fill-rule="evenodd" clip-rule="evenodd" d="M59.8115 13.4426C57.56 12.1496 53.5229 12.7581 51.349 17.5497L51.5043 12.9102L42.4983 14.6595V15.4201L43.43 15.5722C44.6722 15.7243 45.2156 16.3328 45.2933 18.0821C45.5262 21.2766 45.4486 26.7528 45.2933 29.5669C45.138 31.1642 44.5945 31.9247 43.43 32.0769L42.4983 32.229V33.2938H54.998V32.229L53.3676 32.0769C52.0478 31.9247 51.5819 31.1642 51.5043 29.5669C51.2714 27.057 51.2714 22.0372 51.349 18.9188C52.0478 18.0061 54.998 17.1694 57.6377 18.9188L59.8115 13.4426Z" fill="#838383"/>
</g>
<defs>
<clipPath id="clip0_47_5331">
<rect width="117" height="40" fill="white" transform="translate(0.962158)"/>
</clipPath>
</defs>
</svg>
