<svg width="40" height="40" viewBox="0 0 40 40" fill="none" xmlns="http://www.w3.org/2000/svg">
<circle cx="20" cy="20" r="19.5" fill="#066FF9" stroke="white"/>
<path d="M11.5 20C11.5 15.5217 11.5 13.2825 12.8912 11.8912C14.2825 10.5 16.5217 10.5 21 10.5C25.4783 10.5 27.7175 10.5 29.1088 11.8912C30.5 13.2825 30.5 15.5217 30.5 20C30.5 24.4783 30.5 26.7175 29.1088 28.1088C27.7175 29.5 25.4783 29.5 21 29.5C16.5217 29.5 14.2825 29.5 12.8912 28.1088C11.5 26.7175 11.5 24.4783 11.5 20Z" fill="white"/>
<path d="M25.5 20C25.5 22.4853 23.4853 24.5 21 24.5C18.5147 24.5 16.5 22.4853 16.5 20C16.5 17.5147 18.5147 15.5 21 15.5C23.4853 15.5 25.5 17.5147 25.5 20Z" fill="#066FF9"/>
<circle cx="27.75" cy="13.75" r="0.75" fill="#066FF9"/>
</svg>
