<svg width="190" height="44" viewBox="0 0 190 44" fill="none" xmlns="http://www.w3.org/2000/svg">
<g id="Press logo" clip-path="url(#clip0_47_5339)">
<g id="Vector">
<path d="M0.0378418 3.1875H37.7461C37.7461 15.7139 37.7461 28.2861 37.7461 40.8125H0.0378418V3.1875ZM2.81189 9.10655C4.50453 16.7233 6.0091 24.4319 7.60771 32.0945C7.88981 33.0122 7.70174 34.2052 8.6421 34.8476C10.2877 35.1229 11.9804 35.0311 13.626 34.9393C14.5193 34.9852 14.7544 33.9299 14.8955 33.2416C16.0239 27.7814 17.2463 22.3671 18.3748 16.9069C18.4688 16.4021 18.6099 15.8974 18.845 15.4386C20.2555 21.3117 21.4309 27.1849 22.7004 33.0581C22.8885 33.7005 22.9355 34.4346 23.5467 34.8476C25.3334 35.077 27.1671 35.077 28.9538 34.8476C29.612 34.4805 29.612 33.7005 29.8001 33.0581C31.4457 25.0742 32.9973 17.0445 34.737 9.06067C33.1384 9.06067 31.5868 9.06067 29.9882 9.06067C28.7187 16.0351 27.7313 23.0095 26.3208 29.938C24.7692 24.0648 23.6878 18.054 22.3243 12.089C21.9951 11.0796 22.1362 9.61128 21.0078 9.06067C19.5972 8.9689 18.2337 8.9689 16.8232 9.06067C16.0239 9.10656 15.8358 10.0242 15.6948 10.6207C14.6134 16.5857 13.2969 22.4588 12.0744 28.332C11.9333 28.8826 11.7453 29.3873 11.5572 29.938C10.2877 23.0095 9.11227 16.0351 7.98385 9.10655C6.24419 9.10655 4.55155 9.10655 2.81189 9.10655Z" fill="#838383"/>
<path d="M75.1722 3.1875H112.88C112.88 15.7139 112.88 28.2861 112.88 40.8125H75.1722C75.1722 28.2861 75.1722 15.7139 75.1722 3.1875ZM83.6824 9.10655C83.6824 17.7328 83.6824 26.3131 83.6824 34.8934C85.4221 34.8934 87.1617 34.8934 88.9014 34.8934C88.9014 31.5439 88.9014 28.1485 88.9014 24.7989C91.7225 24.7989 94.5906 24.7989 97.4116 24.7989C98.446 24.7072 99.6685 25.4413 99.6685 26.5425C99.8095 29.3415 100.045 32.0945 100.233 34.8934C101.878 34.8934 103.571 34.8934 105.217 34.8934C104.746 31.7274 105.311 28.4697 104.417 25.3954C103.947 23.7895 102.113 23.4224 100.703 23.0095C101.784 22.4588 103.148 22.413 103.9 21.4035C105.029 20.027 105.123 18.1916 105.123 16.4939C105.123 14.5209 105.17 12.3643 103.853 10.7125C102.819 9.33598 100.891 9.15244 99.2923 9.15244C94.0264 9.10655 88.8544 9.10655 83.6824 9.10655Z" fill="#838383"/>
<path d="M150.401 3.1875H188.579V40.8125H150.401C150.401 28.2861 150.401 15.7139 150.401 3.1875ZM158.911 9.10655C158.911 17.7328 158.911 26.3131 158.911 34.8934C163.331 34.8934 167.703 34.8934 172.076 34.8934C174.803 34.8476 177.953 34.3428 179.552 32.0027C181.479 29.0203 181.15 25.3954 181.526 22.0459C181.197 18.6963 181.479 15.0256 179.552 12.0431C178.047 9.8407 175.132 9.24421 172.593 9.15244C168.032 9.06067 163.472 9.10655 158.911 9.10655Z" fill="#838383"/>
<path d="M47.3377 8.83126C53.403 8.83126 59.4683 8.83126 65.5806 8.83126C65.5806 10.3913 65.5806 11.9055 65.5806 13.4656C63.4178 13.4656 61.302 13.4656 59.1392 13.4656C59.1392 19.1552 59.1392 24.8448 59.1392 30.5345C61.302 30.5345 63.4178 30.5345 65.5806 30.5345C65.5806 32.0486 65.5806 33.6087 65.5806 35.1688C59.5153 35.1688 53.45 35.1688 47.3377 35.1688C47.2907 33.6087 47.2907 32.0945 47.3377 30.5345C49.5006 30.5345 51.6164 30.5345 53.7792 30.5345C53.7792 24.8448 53.7792 19.1552 53.7792 13.4656C51.6164 13.4656 49.5006 13.4656 47.3377 13.4656C47.3377 11.9055 47.3377 10.3913 47.3377 8.83126Z" fill="#838383"/>
<path d="M119.604 8.83127C127.033 8.78538 134.509 8.78538 141.938 8.83127C141.938 11.6761 141.938 14.5209 141.938 17.4116C140.339 17.4116 138.693 17.4116 137.095 17.4116C137.095 16.081 137.095 14.7962 137.095 13.4656C134.18 13.4656 131.264 13.4656 128.349 13.4656C128.349 15.4386 128.349 17.4116 128.349 19.3846C130.7 19.3846 133.051 19.3846 135.402 19.3846C135.402 20.8529 135.402 22.3212 135.402 23.7895C133.051 23.7895 130.7 23.7895 128.349 23.7895C128.349 26.0378 128.349 28.2861 128.349 30.5345C131.359 30.4886 134.321 30.5345 137.33 30.5345C137.33 29.0203 137.33 27.552 137.33 26.0378C138.975 26.0378 140.621 26.0378 142.267 26.0378C142.267 29.0662 142.267 32.1404 142.267 35.1688C134.697 35.1688 127.174 35.1688 119.604 35.1688C119.557 33.6087 119.604 32.0945 119.604 30.5345C120.827 30.5345 122.002 30.5345 123.177 30.5345C123.177 24.8448 123.177 19.1552 123.177 13.4656C122.002 13.4656 120.78 13.4656 119.604 13.4656C119.604 11.9055 119.604 10.3913 119.604 8.83127Z" fill="#838383"/>
<path d="M88.9016 13.3279C92.2398 13.3738 95.6251 13.2361 98.9634 13.3738C100.28 14.2456 99.9978 16.0809 100.045 17.4116C99.9978 18.6504 99.9508 20.6235 98.2581 20.7152C95.1549 20.8529 92.0048 20.7152 88.8546 20.7611C88.9016 18.3293 88.9016 15.8056 88.9016 13.3279Z" fill="#838383"/>
<path d="M164.13 13.3279C166.951 13.3279 169.819 13.3279 172.64 13.3279C173.91 13.3279 175.367 13.9244 175.743 15.1633C176.637 17.641 176.26 20.3482 176.354 22.9177C176.26 24.9825 176.496 27.139 175.602 29.0662C174.991 30.305 173.439 30.6262 172.17 30.6262C169.49 30.6262 166.81 30.6262 164.13 30.6262C164.13 24.8907 164.13 19.1093 164.13 13.3279Z" fill="#838383"/>
</g>
</g>
<defs>
<clipPath id="clip0_47_5339">
<rect width="189" height="43" fill="white" transform="translate(0.0378418 0.5)"/>
</clipPath>
</defs>
</svg>
