<svg width="191" height="40" viewBox="0 0 191 40" fill="none" xmlns="http://www.w3.org/2000/svg">
<g clip-path="url(#clip0_45_5280)">
<path d="M39.5172 0.5H0V39.5H39.5172V0.5Z" fill="#838383"/>
<path d="M18.4415 22.6L11.5918 9.98999H14.7532L18.7049 17.92C18.7049 18.05 18.8366 18.18 18.9683 18.31C19.1001 18.44 19.1001 18.57 19.2318 18.83L19.3635 18.96V19.09C19.4952 19.35 19.4952 19.48 19.627 19.74C19.7587 19.87 19.7587 20.13 19.8904 20.26C20.0221 19.87 20.2856 19.61 20.4173 19.09C20.549 18.7 20.8125 18.31 21.0759 17.92L25.0277 9.98999H27.9256L21.0759 22.73V30.79H18.4415V22.6Z" fill="white"/>
<path d="M57.5634 8.03998C59.5392 8.03998 61.2517 8.55998 62.5689 9.59998L61.2517 11.16C60.0661 10.38 58.8806 9.85998 57.4317 9.85998C55.1923 9.85998 53.4799 11.03 52.5579 13.24C52.031 14.54 51.7675 16.23 51.7675 18.44C51.7675 20.13 52.031 21.56 52.4261 22.6C53.4799 25.07 55.1923 26.24 57.8268 26.24C59.2758 26.24 60.593 25.85 61.7786 24.94L63.0958 26.63C61.3834 27.67 59.5392 28.19 57.5634 28.19C55.1923 28.19 53.2165 27.28 51.6358 25.33C50.0551 23.51 49.3965 21.04 49.3965 18.05C49.3965 15.06 50.1868 12.72 51.7675 10.77C53.2165 9.07998 55.1923 8.03998 57.5634 8.03998Z" fill="#838383"/>
<path d="M65.0718 20.91C65.0718 18.57 65.5987 16.75 66.7842 15.45C67.9697 14.15 69.4187 13.37 71.2628 13.37C73.3704 13.37 75.0828 14.15 76.2683 15.84C77.1904 17.14 77.5856 18.96 77.5856 21.17C77.5856 23.77 76.7952 25.85 75.3463 27.15C74.2925 28.06 72.9752 28.58 71.3945 28.58C69.4187 28.58 67.9697 27.93 66.7842 26.5C65.5987 25.2 65.0718 23.25 65.0718 20.91ZM74.2925 17.14C73.6338 15.97 72.7118 15.32 71.2628 15.32C69.8138 15.32 68.8918 15.84 68.2332 16.88C67.7063 17.66 67.5745 18.96 67.5745 20.65C67.5745 22.86 67.838 24.42 68.4966 25.33C69.1552 26.24 70.0773 26.76 71.3945 26.76C72.9752 26.76 74.029 25.98 74.5559 24.55C74.8194 23.77 74.9511 22.73 74.9511 21.43C75.0828 19.48 74.8194 18.05 74.2925 17.14Z" fill="#838383"/>
<path d="M81.8006 17.4C81.8006 15.97 81.6689 14.8 81.2737 13.89L83.513 13.37C83.9082 14.02 84.0399 14.8 84.0399 15.45V15.58C84.5668 15.06 85.0937 14.54 85.884 14.15C86.8061 13.63 87.5964 13.37 88.3868 13.37C89.5723 13.37 90.6261 13.89 91.2847 14.8C91.4164 15.06 91.6799 15.45 91.8116 15.71C93.3923 14.15 94.8413 13.37 96.422 13.37C97.4757 13.37 98.3978 13.76 99.0564 14.41C99.7151 15.19 100.11 16.1 100.11 17.14V27.93H97.7392V17.27C97.7392 15.84 97.0806 15.19 95.8951 15.19C95.2364 15.19 94.4461 15.45 93.7875 15.97C93.524 16.23 92.9971 16.62 92.3385 17.14L92.0751 17.4V27.93H89.5723V17.79C89.5723 16.88 89.4406 16.23 89.1771 15.97C88.782 15.58 88.3868 15.45 87.7282 15.45C86.6744 15.45 85.4889 16.1 84.0399 17.4V28.06H81.8006V17.4Z" fill="#838383"/>
<path d="M104.194 7.52L106.565 7C106.828 8.04 106.96 9.21 106.96 10.64V13.89C106.96 14.67 106.96 15.19 106.96 15.45C108.277 14.15 109.726 13.5 111.175 13.5C112.888 13.5 114.337 14.15 115.259 15.45C116.312 16.75 116.839 18.57 116.839 20.78C116.839 23.12 116.312 24.94 115.259 26.37C114.205 27.8 112.756 28.45 111.044 28.45C110.253 28.45 109.595 28.32 108.804 27.93C108.014 27.54 107.487 27.15 107.092 26.63C106.96 27.28 106.828 27.8 106.697 28.19H104.457C104.721 27.54 104.852 26.37 104.852 24.55V10.9C104.721 9.34 104.589 8.17 104.194 7.52ZM108.014 16.36C107.619 16.62 107.224 17.01 106.96 17.4V24.81C107.882 25.98 109.068 26.5 110.517 26.5C111.702 26.5 112.624 26.11 113.151 25.2C113.81 24.16 114.205 22.73 114.205 20.65C114.205 18.83 113.941 17.53 113.283 16.75C112.756 15.97 111.834 15.58 110.517 15.58C109.726 15.45 108.804 15.71 108.014 16.36Z" fill="#838383"/>
<path d="M120.264 9.34002C120.264 8.82002 120.396 8.43002 120.791 8.04002C121.186 7.65002 121.581 7.52002 122.108 7.52002C122.635 7.52002 123.03 7.65002 123.426 8.04002C123.821 8.43002 123.952 8.82002 123.952 9.34002C123.952 9.86002 123.821 10.25 123.426 10.64C123.03 11.03 122.635 11.16 122.108 11.16C121.581 11.16 121.186 11.03 120.791 10.64C120.396 10.25 120.264 9.86002 120.264 9.34002ZM120.791 28.06V13.76L123.162 13.37V28.06H120.791Z" fill="#838383"/>
<path d="M128.299 17.4C128.299 16.36 128.299 15.71 128.168 15.45C128.168 15.06 127.904 14.67 127.641 14.02L129.88 13.37C130.275 14.15 130.407 14.8 130.407 15.58C131.856 14.15 133.436 13.37 135.017 13.37C135.808 13.37 136.466 13.5 137.125 13.89C137.783 14.28 138.31 14.8 138.574 15.45C138.837 15.97 138.969 16.49 138.969 17.14V28.06H136.73V18.31C136.73 17.14 136.598 16.36 136.203 15.97C135.808 15.58 135.281 15.32 134.622 15.32C134.095 15.32 133.305 15.58 132.514 15.97C131.724 16.36 131.065 16.88 130.539 17.4V28.06H128.299V17.4Z" fill="#838383"/>
<path d="M144.238 16.88L143.052 15.32C145.028 14.02 147.004 13.37 149.112 13.37C151.219 13.37 152.537 14.15 153.195 15.58C153.459 16.1 153.459 16.88 153.459 18.05V18.83L153.327 23.51C153.327 23.64 153.327 23.9 153.327 24.16C153.327 24.94 153.327 25.46 153.459 25.85C153.59 26.37 153.986 26.76 154.512 27.02L153.327 28.58C152.273 28.19 151.614 27.54 151.351 26.5C150.034 27.8 148.585 28.45 147.136 28.45C145.687 28.45 144.501 28.06 143.579 27.28C142.789 26.63 142.394 25.59 142.394 24.29C142.394 22.6 143.052 21.43 144.37 20.52C145.687 19.61 147.663 19.22 150.034 19.22C150.429 19.22 150.692 19.22 151.088 19.22V18.18C151.088 17.01 150.956 16.23 150.561 15.97C150.034 15.45 149.507 15.19 148.585 15.19C147.794 15.19 146.872 15.45 145.819 15.84C145.423 16.1 144.897 16.49 144.238 16.88ZM151.219 24.55L151.351 20.78C150.692 20.78 150.297 20.78 150.166 20.78C148.058 20.78 146.741 21.17 145.95 21.95C145.423 22.47 145.16 23.25 145.16 24.29C145.16 25.98 145.95 26.89 147.663 26.89C149.243 26.76 150.429 25.98 151.219 24.55Z" fill="#838383"/>
<path d="M160.967 13.76H164.655L163.997 15.58H160.967V24.81C160.967 25.59 161.099 26.11 161.362 26.5C161.626 26.76 162.152 27.02 162.811 27.02C163.338 27.02 163.865 26.89 164.26 26.76L164.523 28.19C163.733 28.58 162.943 28.71 162.021 28.71C159.781 28.71 158.728 27.67 158.728 25.46V15.58H156.752V13.76H158.596V13.5C158.596 13.24 158.728 12.2 158.859 10.51V10.12L161.23 9.59998C160.967 11.16 160.967 12.59 160.967 13.76Z" fill="#838383"/>
<path d="M167.026 20.91C167.026 18.57 167.553 16.75 168.739 15.45C169.792 14.15 171.373 13.37 173.217 13.37C175.325 13.37 177.037 14.15 178.223 15.84C179.145 17.14 179.54 18.96 179.54 21.17C179.54 23.77 178.75 25.85 177.301 27.15C176.247 28.06 174.93 28.58 173.349 28.58C171.373 28.58 169.924 27.93 168.739 26.5C167.685 25.2 167.026 23.25 167.026 20.91ZM176.379 17.14C175.72 15.97 174.798 15.32 173.349 15.32C171.9 15.32 170.978 15.84 170.319 16.88C169.792 17.66 169.661 18.96 169.661 20.65C169.661 22.86 169.924 24.42 170.583 25.33C171.241 26.24 172.163 26.76 173.481 26.76C175.061 26.76 176.115 25.98 176.642 24.55C176.905 23.77 177.037 22.73 177.037 21.43C177.037 19.48 176.774 18.05 176.379 17.14Z" fill="#838383"/>
<path d="M183.887 17.14C183.887 15.84 183.755 14.8 183.36 14.02L185.599 13.37C185.994 14.15 186.126 14.8 186.126 15.58V15.84C187.312 14.28 188.629 13.5 190.21 13.5C190.473 13.5 190.736 13.5 191 13.63L190.078 16.1C189.814 15.97 189.551 15.97 189.419 15.97C188.892 15.97 188.234 16.1 187.707 16.49C187.18 16.88 186.653 17.27 186.39 17.79C186.258 18.18 186.126 18.7 186.126 19.35V28.32H183.887V17.14Z" fill="#838383"/>
</g>
<defs>
<clipPath id="clip0_45_5280">
<rect width="191" height="39" fill="white" transform="translate(0 0.5)"/>
</clipPath>
</defs>
</svg>
